<?xml version="1.0" encoding="utf-8"?>
<!-- Generator: Adobe Illustrator 22.0.1, SVG Export Plug-In . SVG Version: 6.00 Build 0)  -->
<svg version="1.1" id="Layer_1" xmlns="http://www.w3.org/2000/svg" xmlns:xlink="http://www.w3.org/1999/xlink" x="0px" y="0px"
	 viewBox="0 0 50 50" style="enable-background:new 0 0 50 50;" xml:space="preserve">
<g>
	<path d="M23.1,30.1c0,4.1,0.2,6.7,0.7,7.9c0.5,1.2,1.4,1.9,2.7,2.2l0,0.6c-1,0-2-0.1-3.1-0.1c-1.1,0-2.5,0-4.4,0
		c-1.8,0-3.1,0-4.2,0c-1,0-2,0.1-2.9,0.1v-0.6c1.3-0.3,2.2-1,2.6-2.2c0.5-1.2,0.7-3.8,0.7-7.9V14.6c0-1.1-0.2-1.9-0.6-2.4
		c-0.4-0.6-1.1-1-2.1-1.2v-0.6c0.1,0,0.2,0,0.3,0c3.2,0.1,5.7,0.1,7.3,0.1h19.3l2.6,7.8l-0.7,0.2c-2-2.2-4.2-3.8-6.7-4.9
		S29.2,12,25.9,12c-0.7,0-1.2,0-1.6,0c-0.4,0-0.7,0-1.1,0.1v11.7c0.6,0,1.2,0.1,1.7,0.1c0.5,0,1,0,1.5,0c2.7,0,5-0.4,6.8-1.3
		c1.8-0.9,2.9-2.1,3.4-3.7h0.7v11.8h-0.7c-0.5-1.8-1.7-3.1-3.4-3.9c-1.8-0.9-4.1-1.3-7.1-1.3c-0.5,0-1.3,0-2.4,0.1
		c-0.2,0-0.3,0-0.4,0V30.1z"/>
</g>
</svg>
